<?xml version="1.0" encoding="UTF-8"?>
<svg id="_레이어_1" data-name=" 레이어 1" xmlns="http://www.w3.org/2000/svg" viewBox="0 0 1920 376.65">
  <defs>
    <style>
      .cls-1 {
        fill: #52bded;
      }

      .cls-2 {
        fill: #ddde51;
      }
    </style>
  </defs>
  <path class="cls-1" d="M214.23,244.28c0,9.09-3.25,16.86-9.73,23.39-6.5,6.48-14.3,9.71-23.39,9.71s-16.88-3.23-23.37-9.71c-6.5-6.52-9.73-14.3-9.73-23.39v-65.88c0-9.07-3.19-16.8-9.55-23.18-6.36-6.34-13.95-9.55-22.8-9.55s-16.5,3.21-22.98,9.55c-6.5,6.38-9.73,14.12-9.73,23.18v65.88c0,9.09-3.25,16.86-9.73,23.39-6.5,6.48-14.3,9.71-23.39,9.71s-16.88-3.23-23.37-9.71c-6.5-6.52-9.73-14.3-9.73-23.39v-65.88c0-27.26,9.67-50.57,29.02-69.91,19.37-19.39,42.67-29.04,69.95-29.04s50.53,9.65,69.73,29.04c19.23,19.35,28.84,42.65,28.84,69.91v65.88h-.04Z"/>
  <path class="cls-1" d="M429.69,244.28c0,9.09-3.23,16.86-9.73,23.39-6.5,6.48-14.3,9.71-23.37,9.71h-65.07c-27.28,0-50.65-9.69-70.14-29.04-19.49-19.35-29.22-42.65-29.22-69.95s9.67-50.57,29.04-69.91c19.35-19.39,42.65-29.04,69.93-29.04,23.12,0,43.66,7.15,61.57,21.43,17.93,14.3,29.48,32.74,34.67,55.31.79,1.58,1.17,4.04,1.17,7.39,0,9.09-3.23,16.9-9.73,23.39-6.5,6.52-14.3,9.75-23.37,9.75-16.38,0-27.08-8.44-32.15-25.34-5.07-16.86-15.65-25.34-31.75-25.34-9.09,0-16.9,3.21-23.39,9.55-6.5,6.38-9.73,13.97-9.73,22.8s3.23,16.52,9.73,23c6.48,6.48,14.16,9.71,22.98,9.71h65.07c9.09,0,16.96,3.27,23.57,9.75s9.94,14.3,9.94,23.39l-.04.06Z"/>
  <path class="cls-1" d="M643.59,244.35c0,9.07-3.25,16.84-9.73,23.32-6.5,6.48-14.3,9.71-23.39,9.71s-16.88-3.23-23.39-9.71l-42.07-42.49-41.7,42.49c-6.5,6.48-14.42,9.71-23.77,9.71s-16.88-3.23-23.37-9.71c-6.5-6.48-9.73-14.26-9.73-23.32s3.23-16.86,9.73-23.35l42.07-42.39-42.07-42.77c-6.5-6.48-9.73-14.3-9.73-23.35s3.23-16.84,9.73-23.32c6.48-6.48,14.28-9.71,23.37-9.71s17.27,3.21,23.77,9.65l41.7,42.17,42.07-42.17c6.5-6.44,14.3-9.65,23.39-9.65s16.88,3.23,23.39,9.71c6.48,6.48,9.73,14.26,9.73,23.32s-3.11,17.1-9.35,23.35l-42.47,42.77,42.47,42.39c6.24,6.24,9.35,14.02,9.35,23.35Z"/>
  <path class="cls-1" d="M863.45,112.58c0,9.09-3.25,16.9-9.73,23.39-6.5,6.48-14.3,9.71-23.39,9.71h-70.9c-10.38,0-18.46,3.76-24.15,11.29-4.42,6.77-8.83,13.67-13.27,20.66-5.98,7.53-14.16,11.29-24.54,11.29-9.09,0-16.88-3.23-23.39-9.71-6.5-6.52-9.73-14.3-9.73-23.39,0-3.61.65-7.43,1.96-11.29,6.48-19.25,18.5-34.9,36.03-46.95,17.53-12.1,36.55-18.11,57.09-18.11h70.9c9.09,0,16.88,3.23,23.39,9.71,6.48,6.52,9.73,14.3,9.73,23.39v.02ZM863.07,201.03c0,3.9-.67,7.67-1.96,11.29-6.77,19.25-18.76,34.9-36.03,46.95-17.29,12.1-36.17,18.11-56.71,18.11h-70.9c-9.09,0-16.88-3.23-23.39-9.71-6.5-6.52-9.73-14.3-9.73-23.39s3.23-16.9,9.73-23.39c6.5-6.48,14.3-9.75,23.39-9.75h70.9c14.3,0,24.42-7.19,30.39-21.61,5.98-14.42,16.36-21.65,31.18-21.65,9.09,0,16.88,3.27,23.39,9.75,6.48,6.48,9.73,14.3,9.73,23.39Z"/>
  <path class="cls-1" d="M1078.52,184.27c0,20.78-5.98,39.72-17.91,56.87-11.96,17.15-27.79,29.24-47.54,36.25v33.1c0,9.09-3.25,16.9-9.73,23.39-6.5,6.48-14.3,9.75-23.39,9.75s-16.88-3.27-23.37-9.75c-6.5-6.48-9.73-14.3-9.73-23.39v-33.1c-19.75-7.01-35.72-19.1-47.92-36.25-12.22-17.15-18.32-36.11-18.32-56.87v-71.69c0-9.09,3.23-16.86,9.73-23.39,6.48-6.48,14.28-9.71,23.37-9.71s16.88,3.23,23.39,9.71c6.48,6.52,9.73,14.3,9.73,23.39v71.69c0,8.83,3.23,16.48,9.73,23,6.48,6.48,14.16,9.71,22.98,9.71s16.44-3.17,22.8-9.55c6.36-6.34,9.55-14.08,9.55-23.18v-71.69c0-9.09,3.23-16.86,9.73-23.39,6.48-6.48,14.28-9.71,23.37-9.71s16.96,3.23,23.57,9.71c6.62,6.52,9.94,14.3,9.94,23.39v71.69l.02.02Z"/>
  <path class="cls-1" d="M1294.77,112.58c0,9.09-3.25,16.9-9.73,23.39-6.5,6.48-14.3,9.71-23.39,9.71h-70.9c-10.38,0-18.46,3.76-24.15,11.29-4.42,6.77-8.83,13.67-13.27,20.66-5.98,7.53-14.16,11.29-24.54,11.29-9.09,0-16.88-3.23-23.39-9.71-6.5-6.52-9.73-14.3-9.73-23.39,0-3.61.65-7.43,1.96-11.29,6.48-19.25,18.5-34.9,36.03-46.95,17.53-12.1,36.55-18.11,57.09-18.11h70.9c9.09,0,16.88,3.23,23.39,9.71,6.48,6.52,9.73,14.3,9.73,23.39v.02ZM1294.38,201.03c0,3.9-.67,7.67-1.96,11.29-6.77,19.25-18.76,34.9-36.03,46.95-17.29,12.1-36.17,18.11-56.71,18.11h-70.9c-9.09,0-16.88-3.23-23.39-9.71-6.5-6.52-9.73-14.3-9.73-23.39s3.23-16.9,9.73-23.39c6.5-6.48,14.3-9.75,23.39-9.75h70.9c14.3,0,24.42-7.19,30.39-21.61,5.98-14.42,16.36-21.65,31.18-21.65,9.09,0,16.88,3.27,23.39,9.75,6.48,6.48,9.73,14.3,9.73,23.39Z"/>
  <path class="cls-1" d="M1388.19,264.48c0,9.09-3.23,16.86-9.73,23.39-6.5,6.48-14.3,9.71-23.37,9.71s-16.9-3.23-23.39-9.71c-6.5-6.52-9.73-14.3-9.73-23.39V66.15c0-9.09,3.23-16.86,9.73-23.39,6.48-6.48,14.3-9.71,23.39-9.71s16.86,3.23,23.37,9.71c6.5,6.52,9.73,14.3,9.73,23.39v198.33Z"/>
  <path class="cls-1" d="M1605.99,264.48c0,9.09-3.25,16.86-9.73,23.39-6.5,6.48-14.3,9.71-23.39,9.71h-65.83c-27.02,0-50.26-9.69-69.75-29.04-19.49-19.35-29.22-42.65-29.22-69.95s9.67-50.51,29.04-69.73c19.35-19.21,42.53-28.82,69.55-28.82s50.65,9.61,70.14,28.82c19.49,19.25,29.22,42.49,29.22,69.73v65.88l-.02.02ZM1539.75,198.6c0-8.83-3.19-16.42-9.55-22.8-6.36-6.34-14.1-9.55-23.18-9.55s-16.84,3.21-23.2,9.55c-6.36,6.38-9.55,13.97-9.55,22.8s3.19,16.84,9.55,23.2c6.36,6.34,13.95,9.51,22.8,9.51h32.74l.38-32.74.02.02Z"/>
  <path class="cls-1" d="M1820.68,198.6c0,27.28-9.61,50.61-28.84,69.95-19.23,19.35-42.47,29.04-69.73,29.04s-50.65-9.69-70.14-29.04c-19.49-19.35-29.22-42.65-29.22-69.95V66.13c0-9.09,3.23-16.86,9.73-23.39,6.5-6.48,14.3-9.71,23.39-9.71s16.86,3.23,23.37,9.71c6.5,6.52,9.73,14.3,9.73,23.39v33.91h32.74c27.28,0,50.59,9.61,69.95,28.82,19.35,19.25,29.04,42.49,29.04,69.73l-.02.02ZM1754.44,198.6c0-9.07-3.11-16.72-9.35-22.96s-13.91-9.37-22.98-9.37h-33.12v32.35c0,8.85,3.23,16.52,9.73,23,6.5,6.48,14.18,9.71,22.98,9.71s16.44-3.17,22.8-9.51c6.38-6.38,9.55-14.12,9.55-23.2h.4l-.02-.02Z"/>
  <path class="cls-2" d="M1903.27,264.48c0,9.09-3.23,16.86-9.73,23.39-6.5,6.48-14.3,9.71-23.37,9.71s-16.96-3.23-23.57-9.71c-6.62-6.52-9.94-14.3-9.94-23.39s3.23-16.9,9.73-23.39c6.48-6.48,14.28-9.75,23.37-9.75s16.96,3.27,23.57,9.75c6.62,6.48,9.94,14.3,9.94,23.39Z"/>
  <circle class="cls-2" cx="763.71" cy="180.97" r="12.04"/>
  <circle class="cls-2" cx="1193.83" cy="180.97" r="12.04"/>
</svg>